# xmcd CD database file
#
# Track frame offsets:
#	150
#	9737
#	22119
#	35097
#	45570
#	58688
#	71580
#	79809
#	91088
#	104509
#	111556
#	120639
#	132720
#	139721
#
# Disc length: 2031 seconds
#
# Revision: 0
# Processed by: cddbd v1.5.1PL2 Copyright (c) Steve Scherf et al.
# Submitted via: CDex 1.51
#
DISCID=cc07ed0e
DTITLE=0404-Bonanza - Songs By Original Artists
DYEAR=1968
DGENRE=Country
TTITLE0=Bonanza - Theme
TTITLE1=Careless Love - Michael Landon
TTITLE2=Blue Guitar - Lorne Greene
TTITLE3=Early One Morning - Pernell Roberts
TTITLE4=An Ol' Tin Cup - Lorne Greene
TTITLE5=Oh ! What A Town - Lorne Greene
TTITLE6=Skip To My Lou - The Cartwright's Together
TTITLE7=Ghost Riders In The Sky - Lorne Greene
TTITLE8=In The Pines - Pernell Roberts
TTITLE9=Ponderosa - Lorne Greene
TTITLE10=Shenandoah - Michael Landon
TTITLE11=Tumbling Tumbleweeds - Lorne Greene
TTITLE12=The Hangin' Blues - Dan Blocker
TTITLE13=The Man - Lorne Greene
EXTD=YEAR: 1968
EXTT0=
EXTT1=
EXTT2=
EXTT3=
EXTT4=
EXTT5=
EXTT6=
EXTT7=
EXTT8=
EXTT9=
EXTT10=
EXTT11=
EXTT12=
EXTT13=
PLAYORDER=
